<mxfile host="app.diagrams.net" modified="2024-05-18T09:07:16.240Z" agent="Mozilla/5.0 (Windows NT 10.0; Win64; x64) AppleWebKit/537.36 (KHTML, like Gecko) Chrome/124.0.0.0 Safari/537.36 Edg/124.0.0.0" version="24.4.4" etag="H6OKhB10_JDiREQU38MB" type="github">
  <diagram name="Page-1" id="1Y-3Yt9Xxj2UnTLAdFB9">
    <mxGraphModel>
      <root>
        <mxCell id="0" />
        <mxCell id="1" parent="0" />
      </root>
    </mxGraphModel>
  </diagram>
</mxfile>
